<?xml version="1.0" standalone="no"?>
<!DOCTYPE svg PUBLIC "-//W3C//DTD SVG 20010904//EN"
 "http://www.w3.org/TR/2001/REC-SVG-20010904/DTD/svg10.dtd">
<svg version="1.0" xmlns="http://www.w3.org/2000/svg"
 width="256.000000pt" height="256.000000pt" viewBox="0 0 256.000000 256.000000"
 preserveAspectRatio="xMidYMid meet">

<g transform="translate(0.000000,256.000000) scale(0.100000,-0.100000)"
fill="#000000" stroke="none">
<path d="M1119 2547 c-24 -18 -39 -52 -39 -86 l0 -31 -303 0 c-346 0 -353 -1
-394 -80 l-23 -44 2 -1102 c3 -1101 3 -1103 24 -1131 11 -15 36 -38 54 -50 31
-22 43 -23 201 -23 156 0 169 1 179 19 13 25 13 27 -6 45 -13 13 -43 16 -175
16 -146 0 -161 2 -179 20 -20 20 -20 33 -20 1113 0 973 2 1095 16 1115 15 22
16 22 320 22 l304 0 0 -45 0 -45 -241 0 -241 0 -29 -29 -29 -29 0 -986 0 -985
24 -28 24 -28 692 0 692 0 24 28 24 28 0 793 c0 603 -3 795 -12 804 -16 16
-33 15 -52 -4 -14 -14 -16 -100 -16 -795 l0 -779 -660 0 -660 0 0 965 0 965
229 0 228 0 6 -42 c4 -29 14 -50 32 -65 24 -22 35 -23 165 -23 130 0 141 1
165 23 18 15 28 36 32 65 l6 42 228 0 229 0 0 -108 c0 -114 6 -132 46 -132 30
0 34 16 34 147 0 113 0 115 -29 144 l-29 29 -241 0 -241 0 0 45 0 45 300 0
c287 0 301 -1 320 -20 20 -20 20 -33 20 -1113 0 -928 -2 -1096 -14 -1113 -14
-18 -35 -19 -587 -24 -531 -5 -573 -6 -583 -23 -8 -12 -8 -22 0 -35 10 -16 51
-17 581 -20 l570 -2 33 22 c18 13 43 36 54 51 21 28 21 30 24 1131 l2 1102
-23 44 c-41 79 -48 80 -394 80 l-303 0 0 31 c0 34 -15 68 -39 86 -22 17 -300
17 -322 0z m281 -242 l0 -175 -120 0 -120 0 0 175 0 175 120 0 120 0 0 -175z"/>
<path d="M762 1898 c-25 -25 -6 -68 30 -68 15 0 18 -12 20 -107 l3 -108 30 0
30 0 3 108 c2 96 5 107 21 107 17 0 51 29 51 43 0 3 -7 13 -16 21 -19 20 -153
23 -172 4z"/>
<path d="M1087 1888 c-8 -13 -34 -74 -57 -135 -36 -95 -41 -115 -30 -128 18
-22 53 -15 65 13 8 18 18 22 51 22 33 0 45 -5 58 -25 19 -29 51 -33 65 -7 6
12 -3 50 -36 137 -24 66 -49 125 -55 132 -16 20 -46 15 -61 -9z m43 -138 c0
-5 -4 -10 -10 -10 -5 0 -10 5 -10 10 0 6 5 10 10 10 6 0 10 -4 10 -10z"/>
<path d="M1384 1901 c-29 -12 -54 -50 -54 -79 0 -40 20 -63 76 -88 30 -13 54
-28 54 -34 0 -22 -34 -23 -70 -3 -42 25 -70 16 -70 -22 0 -31 55 -65 104 -65
96 0 146 87 89 152 -9 10 -35 25 -59 34 -24 9 -44 21 -44 25 0 13 35 11 64 -2
51 -23 78 36 31 67 -30 19 -92 27 -121 15z"/>
<path d="M1622 1898 c-14 -14 -17 -255 -3 -276 4 -8 19 -12 32 -10 19 2 25 10
27 37 l3 34 39 -38 c45 -44 83 -46 88 -5 2 19 -10 37 -47 75 l-51 49 51 47
c44 40 49 50 40 67 -18 33 -39 33 -75 2 -39 -35 -46 -37 -46 -12 0 20 -18 42
-35 42 -6 0 -16 -5 -23 -12z"/>
<path d="M803 1500 c-89 -54 -84 -188 7 -235 67 -35 142 -10 180 58 65 115
-73 247 -187 177z m111 -76 c31 -30 14 -85 -30 -98 -25 -8 -74 27 -74 53 0 51
69 81 104 45z"/>
<path d="M1119 1484 c-9 -11 -10 -20 -2 -32 9 -15 44 -17 354 -17 l344 0 0 30
0 30 -341 3 c-302 2 -343 0 -355 -14z"/>
<path d="M1121 1326 c-7 -8 -10 -24 -6 -36 6 -19 13 -20 261 -20 227 0 255 2
261 16 3 9 2 24 -4 33 -9 14 -42 16 -255 19 -206 2 -247 0 -257 -12z"/>
<path d="M779 1051 c-35 -34 -39 -44 -39 -87 0 -62 28 -110 77 -131 115 -48
230 71 177 182 -23 50 -66 75 -128 75 -43 0 -53 -4 -87 -39z m129 -47 c26 -18
29 -60 5 -86 -23 -25 -68 -23 -87 4 -21 30 -20 54 4 78 24 24 48 25 78 4z"/>
<path d="M1126 1064 c-9 -8 -16 -21 -16 -28 0 -34 20 -36 351 -36 180 0 334 3
343 6 22 9 20 51 -3 64 -13 6 -138 10 -340 10 -277 0 -322 -2 -335 -16z"/>
<path d="M1119 894 c-9 -11 -10 -20 -2 -32 9 -15 39 -17 255 -20 263 -3 278 0
263 48 -6 19 -13 20 -254 20 -215 0 -250 -2 -262 -16z"/>
<path d="M811 653 c-46 -23 -71 -67 -71 -126 0 -90 89 -151 176 -121 121 41
121 208 1 253 -39 15 -66 13 -106 -6z m101 -80 c27 -24 23 -69 -8 -89 -55 -37
-117 25 -80 80 19 30 60 35 88 9z"/>
<path d="M1122 638 c-16 -16 -15 -33 4 -52 13 -14 58 -16 335 -16 202 0 327 4
340 10 23 13 25 55 3 64 -9 3 -163 6 -343 6 -241 0 -330 -3 -339 -12z"/>
<path d="M1128 479 c-24 -13 -23 -46 2 -59 12 -7 106 -9 261 -8 218 3 243 5
253 20 8 13 8 23 0 35 -10 16 -35 18 -255 20 -153 2 -250 -1 -261 -8z"/>
</g>
</svg>
